[img]http://img195.imageshack.us/img195/1111/deadfall.jpg[/img]

[b][size=200][color=black]PLOT[/color][/size][/b]

[code]A thriller that follows two siblings who decide to fend for 
themselves in the wake of a botched casino heist, and their unlikely 
reunion during another family's Thanksgiving celebration. [/code]

[b][size=200][color=black]IMDB[/color][/size][/b]

[code]http://www.imdb.com/title/tt1667310/[/code]

[b][size=200][color=black]MOVIE INFO[/color][/size][/b]

[code]Deadfall [2012] [LIMITED] BRRip x264 AAC-V3nom

Format                                   : MPEG-4
Format profile                           : Base Media / Version 2
Codec ID                                 : mp42
File size                                : 298 MiB
Duration                                 : 1h 34mn
Overall bit rate mode                    : Variable
Overall bit rate                         : 440 Kbps
Encoded date                             : UTC 2013-01-22 12:40:28
Tagged date                              : UTC 2013-01-22 13:04:51

Video
ID                                       : 1
Format                                   : AVC
Format/Info                              : Advanced Video Codec
Format profile                           : Main@L2.1
Format settings, CABAC                   : Yes
Format settings, ReFrames                : 4 frames
Codec ID                                 : avc1
Codec ID/Info                            : Advanced Video Coding
Duration                                 : 1h 34mn
Bit rate mode                            : Variable
Bit rate                                 : 343 Kbps
Width                                    : 640 pixels
Height                                   : 272 pixels
Display aspect ratio                     : 2.35:1
Frame rate mode                          : Variable
Frame rate                               : 23.976 fps
Minimum frame rate                       : 11.987 fps
Maximum frame rate                       : 90 000.000 fps
Color space                              : YUV
Chroma subsampling                       : 4:2:0
Bit depth                                : 8 bits
Scan type                                : Progressive
Bits/(Pixel*Frame)                       : 0.082
Stream size                              : 229 MiB (77%)
Writing library                          : x264 core 112

Audio
ID                                       : 2
Format                                   : AAC
Format/Info                              : Advanced Audio Codec
Format profile                           : LC
Codec ID                                 : 40
Duration                                 : 1h 34mn
Bit rate mode                            : Variable
Bit rate                                 : 96.0 Kbps
Maximum bit rate                         : 154 Kbps
Channel(s)                               : 2 channels
Channel positions                        : Front: L R
Sampling rate                            : 48.0 KHz
Compression mode                         : Lossy
Delay relative to video                  : 42ms
Stream size                              : 65.0 MiB (22%)
Encoded date                             : UTC 2013-01-22 12:40:28
Tagged date                              : UTC 2013-01-22 13:04:47[/code]

[b][size=200][color=black]SOURCE[/color][/size][/b]

[code]Deadfall.2012.LIMITED.BDRip.XviD-SPARKS(Thanks)[/code]

[b][size=200][color=black]SCREENSHOTS[/color][/size][/b]

[img]http://img10.imageshack.us/img10/538/deadfall2012limitedbrri.jpg[/img]

[img]http://kastatic.com/i2/users/133df62bbf28e62494bb17fe11078f1a.gif[/img][img]http://kastatic.com/i2/users/133df62bbf28e62494bb17fe11078f1a.gif[/img]